<?xml version="1.0" ?><svg height="512" preserveAspectRatio="xMidYMid" viewBox="0 0 512 512" width="512" xmlns="http://www.w3.org/2000/svg" xmlns:xlink="http://www.w3.org/1999/xlink"><defs><style>
      .cls-1 {
        fill: #fff;
      }

      .cls-2 {
        fill: #05cc47;
      }

      .cls-2, .cls-3 {
        fill-rule: evenodd;
      }

      .cls-3 {
        fill: #000;
        opacity: 0.1;
      }
    </style></defs><circle class="cls-1" cx="256" cy="256" r="256"/><path class="cls-2" d="M256.000,512.000 C114.615,512.000 0.000,397.385 0.000,256.000 C0.000,114.615 114.615,0.000 256.000,0.000 C397.385,0.000 512.000,114.615 512.000,256.000 C512.000,397.385 397.385,512.000 256.000,512.000 ZM367.000,82.000 L297.713,82.000 L259.535,155.517 L145.000,155.517 L145.000,246.000 C145.000,246.000 186.006,246.000 201.560,246.000 C217.115,246.000 205.803,271.448 205.803,271.448 L147.828,376.069 L147.828,451.000 L207.217,451.000 L249.637,378.897 L362.758,378.897 L362.758,289.828 C362.758,289.828 334.478,289.828 310.439,289.828 C286.401,289.828 304.783,267.207 304.783,267.207 L367.000,159.759 L367.000,82.000 Z"/><path class="cls-3" d="M436.999,75.012 C536.959,174.972 536.959,337.039 436.999,436.999 C337.039,536.959 174.972,536.959 75.012,436.999 "/></svg>